<svg width="200" height="200" viewBox="0 0 1024 1024" xmlns="http://www.w3.org/2000/svg">
  <g transform="scale(1.2) translate(-100 -100)">
    <path d="M512 0C229.2 0 0 229.2 0 512s229.2 512 512 512 512-229.2 512-512S794.8 0 512 0zm0 960c-247.4 0-448-200.6-448-448S264.6 64 512 64s448 200.6 448 448-200.6 448-448 448z" fill="#ffffff"/>
    <path d="M512 128c-211.7 0-384 172.3-384 384s172.3 384 384 384 384-172.3 384-384-172.3-384-384-384zm0 704c-176.4 0-320-143.6-320-320s143.6-320 320-320 320 143.6 320 320-143.6 320-320 320z" fill="#e31b23"/>
    <g transform="translate(256 256)">
      <path d="M256 128h-64v256h64V128zm128 0h-64v256h64V128z" fill="#002868"/>
      <path d="M384 128L256 256l128 128V128z" fill="#ffffff"/>
      <path d="M128 128v256l128-128L128 128z" fill="#ffffff"/>
    </g>
    <path d="M512 320c-106.4 0-192 85.6-192 192s85.6 192 192 192 192-85.6 192-192-85.6-192-192-192zm0 320c-70.6 0-128-57.4-128-128s57.4-128 128-128 128 57.4 128 128-57.4 128-128 128z" fill="#002868"/>
  </g>
</svg>
